<svg xmlns="http://www.w3.org/2000/svg" version="1.1" xmlns:xlink="http://www.w3.org/1999/xlink" xmlns:svgjs="http://svgjs.dev/svgjs" width="2000" height="383" viewBox="0 0 2000 383"><g transform="matrix(1,0,0,1,-1.2121212121212466,-1.83860514226825)"><svg viewBox="0 0 396 76" data-background-color="#000000" preserveAspectRatio="xMidYMid meet" height="383" width="2000" xmlns="http://www.w3.org/2000/svg" xmlns:xlink="http://www.w3.org/1999/xlink"><g id="tight-bounds" transform="matrix(1,0,0,1,0.2400000000000091,0.36484070708195304)"><svg viewBox="0 0 395.52 75.27031858583612" height="75.27031858583612" width="395.52"><g><svg viewBox="0 0 508.91416840667944 96.85004952674105" height="75.27031858583612" width="395.52"><g transform="matrix(1,0,0,1,0,13.385209449788384)"><svg viewBox="0 0 395.52 70.07963062716428" height="70.07963062716428" width="395.52"><g id="textblocktransform"><svg viewBox="0 0 395.52 70.07963062716428" height="70.07963062716428" width="395.52" id="textblock"><g><svg viewBox="0 0 395.52 70.07963062716428" height="70.07963062716428" width="395.52"><g transform="matrix(1,0,0,1,0,0)"><svg width="395.52" viewBox="3 -35.9 259.88 46.05" height="70.07963062716428" data-palette-color="url(#70af632b-5c2f-488e-99d6-8f116c6ade85)"></svg></g></svg></g></svg></g></svg></g><g transform="matrix(1,0,0,1,412.0641188799384,0)"><svg viewBox="0 0 96.85004952674105 96.85004952674105" height="96.85004952674105" width="96.85004952674105"><g data-palette-color="url(#8767d0a4-c63d-4c9c-ab11-ddf67e95823d)"></g></svg></g></svg></g><defs></defs><mask id="f2b317e1-022e-4aaf-a6ec-953f2975b420"><g id="SvgjsG9197"><svg viewBox="0 0 395.52 75.27031858583612" height="75.27031858583612" width="395.52"><g><svg viewBox="0 0 508.91416840667944 96.85004952674105" height="75.27031858583612" width="395.52"><g transform="matrix(1,0,0,1,0,13.385209449788384)"><svg viewBox="0 0 395.52 70.07963062716428" height="70.07963062716428" width="395.52"><g id="SvgjsG9196"><svg viewBox="0 0 395.52 70.07963062716428" height="70.07963062716428" width="395.52" id="SvgjsSvg9195"><g><svg viewBox="0 0 395.52 70.07963062716428" height="70.07963062716428" width="395.52"><g transform="matrix(1,0,0,1,0,0)"><svg width="395.52" viewBox="3 -35.9 259.88 46.05" height="70.07963062716428" data-palette-color="url(#70af632b-5c2f-488e-99d6-8f116c6ade85)"><path d="M12.5 0.95L12.5 0.95Q23.15 4.65 28.48 5.98 33.8 7.3 37.63 7.3 41.45 7.3 46.05 5.55L46.05 5.55 46.3 5.95Q40.2 10.15 34 10.15L34 10.15Q27.65 10.15 19.55 6.2L19.55 6.2Q13.3 3.1 11.8 2.45L11.8 2.45Q6.45 0.05 3 0L3 0 3-0.5 3.65-0.5Q4.95-0.5 5.88-1.4 6.8-2.3 6.85-3.65L6.85-3.65 6.85-31.35Q6.8-32.65 5.88-33.58 4.95-34.5 3.65-34.5L3.65-34.5 3-34.5 3-35 13.95-35 13.95-34.5 13.3-34.5Q12-34.5 11.05-33.58 10.1-32.65 10.1-31.35L10.1-31.35 10.1-2.5Q10.1-1.6 10.2-1.13 10.3-0.65 10.85-0.05 11.4 0.55 12.5 0.95ZM23.05-0.5L23.7-0.5Q25-0.5 25.92-1.43 26.85-2.35 26.9-3.65L26.9-3.65 26.9-31.65Q26.9-32.85 25.95-33.68 25-34.5 23.7-34.5L23.7-34.5 23.1-34.5 23.05-35 37.7-35Q39.25-35 41.07-35.3 42.9-35.6 43.65-35.9L43.65-35.9 43.65-29.6 43.15-29.6 43.15-30.5Q43.15-31.7 42.32-32.55 41.5-33.4 40.35-33.45L40.35-33.45 30.15-33.45 30.15-18 38.6-18Q39.6-18.05 40.3-18.75 41-19.45 41-20.5L41-20.5 41-21.2 41.5-21.2 41.5-13.3 41-13.3 41-14.05Q41-15.05 40.32-15.75 39.65-16.45 38.65-16.5L38.65-16.5 30.15-16.5 30.15-1.55 37.3-1.55Q41-1.55 42.95-3.2 44.9-4.85 46.2-8.1L46.2-8.1 46.7-8.1 43.8 0 23.05 0 23.05-0.5ZM68.75 0.7Q60.85 0.65 55.87-4.35 50.9-9.35 50.9-17.53 50.9-25.7 55.87-30.7 60.85-35.7 69.05-35.7L69.05-35.7Q75.75-35.7 80.9-32.3L80.9-32.3 81.9-25.25 81.45-25.25Q80.34-29.55 77-31.88 73.65-34.2 69.05-34.2L69.05-34.2Q62.5-34.2 58.57-29.65 54.65-25.1 54.65-17.6 54.65-10.1 58.52-5.53 62.4-0.95 68.75-0.8L68.75-0.8Q74.34-0.8 78.09-3.85L78.09-3.85Q82.15-7.15 83-14.6L83-14.6 83.4-14.6 82.8-6.75Q78.25 0.7 68.75 0.7L68.75 0.7ZM121.64-0.5L121.64-0.5 122.04-0.5 122.04 0 110.79 0 110.79-0.5 111.24-0.5Q112.29-0.5 112.82-1.18 113.34-1.85 113.34-2.45 113.34-3.05 113.14-3.65L113.14-3.65 109.94-12.15 96.44-12.15 93.09-3.6Q92.89-3 92.89-2.43 92.89-1.85 93.42-1.18 93.94-0.5 94.99-0.5L94.99-0.5 95.44-0.5 95.44 0 85.39 0 85.39-0.5 85.84-0.5Q87.09-0.5 88.29-1.3 89.49-2.1 90.24-3.65L90.24-3.65 101.54-30.55Q103.39-34.6 103.39-35.7L103.39-35.7 103.84-35.7 117.24-3.65Q117.94-2.1 119.14-1.3 120.34-0.5 121.64-0.5ZM103.34-29.7L97.04-13.65 109.34-13.65 103.34-29.7ZM124.49-0.5L125.14-0.5Q126.44-0.5 127.37-1.43 128.29-2.35 128.34-3.65L128.34-3.65 128.34-31.35Q128.29-32.65 127.37-33.58 126.44-34.5 125.14-34.5L125.14-34.5 124.49-34.5 124.49-35 135.44-35 135.44-34.5 134.79-34.5Q132.99-34.5 132.04-32.95L132.04-32.95Q131.59-32.2 131.59-31.35L131.59-31.35 131.59-1.55 138.74-1.55Q142.44-1.55 144.39-3.2 146.34-4.85 147.64-8.1L147.64-8.1 148.14-8.1 145.24 0 124.49 0 124.49-0.5ZM151.84-0.5L152.49-0.5Q153.79-0.5 154.71-1.43 155.64-2.35 155.69-3.65L155.69-3.65 155.69-31.4Q155.64-32.7 154.71-33.6 153.79-34.5 152.49-34.5L152.49-34.5 151.84-34.5 151.84-35 162.79-35 162.79-34.5 162.14-34.5Q160.84-34.5 159.91-33.6 158.99-32.7 158.94-31.4L158.94-31.4 158.94-3.65Q158.94-2.35 159.89-1.43 160.84-0.5 162.14-0.5L162.14-0.5 162.79-0.5 162.79 0 151.84 0 151.84-0.5ZM185.59 0.7Q177.69 0.65 172.71-4.35 167.74-9.35 167.74-17.53 167.74-25.7 172.71-30.7 177.69-35.7 185.89-35.7L185.89-35.7Q192.59-35.7 197.74-32.3L197.74-32.3 198.74-25.25 198.29-25.25Q197.19-29.55 193.84-31.88 190.49-34.2 185.89-34.2L185.89-34.2Q179.34-34.2 175.41-29.65 171.49-25.1 171.49-17.6 171.49-10.1 175.36-5.53 179.24-0.95 185.59-0.8L185.59-0.8Q191.19-0.8 194.94-3.85L194.94-3.85Q198.99-7.15 199.84-14.6L199.84-14.6 200.24-14.6 199.64-6.75Q195.09 0.7 185.59 0.7L185.59 0.7ZM239.48-35L239.48-34.5 238.68-34.5Q237.63-34.5 236.86-33.83 236.08-33.15 236.03-32.15L236.03-32.15 236.03-12.35Q236.03-6.5 232.33-2.9 228.63 0.7 222.48 0.7 216.33 0.7 212.51-2.88 208.68-6.45 208.68-12.3L208.68-12.3 208.68-32Q208.68-33.5 207.38-34.2L207.38-34.2Q206.78-34.5 206.03-34.5L206.03-34.5 205.23-34.5 205.23-35 215.38-35 215.38-34.5 214.58-34.5Q213.48-34.5 212.73-33.83 211.98-33.15 211.93-32.1L211.93-32.1 211.93-13Q211.93-7.55 214.86-4.2 217.78-0.85 222.68-0.85 227.58-0.85 230.63-4.03 233.68-7.2 233.68-12.35L233.68-12.35 233.68-32.1Q233.63-33.15 232.88-33.83 232.13-34.5 231.03-34.5L231.03-34.5 230.23-34.5 230.23-35 239.48-35ZM245.03-2.05L245.03-2.05Q244.88-2.75 244.88-4.75 244.88-6.75 245.63-9L245.63-9 246.08-9Q246.03-8.45 246.03-7.9L246.03-7.9Q246.03-4.85 247.88-2.83 249.73-0.8 252.78-0.8L252.78-0.8Q255.93-0.8 257.96-2.7 259.98-4.6 259.98-7.48 259.98-10.35 258.03-12.15L258.03-12.15 248.43-21.05Q245.73-23.55 245.73-27.1 245.73-30.65 248.11-33.18 250.48-35.7 254.53-35.7L254.53-35.7Q256.43-35.7 258.83-35.2L258.83-35.2 260.78-35.2 260.78-29.05 260.33-29.05Q260.33-31.4 258.71-32.8 257.08-34.2 254.53-34.2 251.98-34.2 250.26-32.5 248.53-30.8 248.53-28.25 248.53-25.7 250.53-23.85L250.53-23.85 260.38-14.75Q262.88-12.45 262.88-8.45 262.88-4.45 260.33-1.88 257.78 0.7 253.53 0.7L253.53 0.7Q251.33 0.7 248.86 0.03 246.38-0.65 245.03-2.05Z" opacity="1" transform="matrix(1,0,0,1,0,0)" fill="white" class="wordmark-text-0" id="SvgjsPath9194"></path></svg></g></svg></g></svg></g></svg></g><g transform="matrix(1,0,0,1,412.0641188799384,0)"><svg viewBox="0 0 96.85004952674105 96.85004952674105" height="96.85004952674105" width="96.85004952674105"><g data-palette-color="url(#8767d0a4-c63d-4c9c-ab11-ddf67e95823d)"><rect width="26.472346870642554" height="96.85004952674105" fill="black" stroke="transparent" x="0" fill-opacity="1"></rect><rect width="26.472346870642554" height="96.85004952674105" fill="black" stroke="transparent" x="32.28334984224702" fill-opacity="0.75"></rect><rect width="26.472346870642554" height="96.85004952674105" fill="black" stroke="transparent" x="64.56669968449404" fill-opacity="0.5"></rect></g></svg></g></svg></g><defs><mask></mask></defs></svg><rect width="395.52" height="75.27031858583612" fill="black" stroke="none" visibility="hidden"></rect></g></mask><linearGradient x1="0" x2="1" y1="0.548" y2="0.55" id="70af632b-5c2f-488e-99d6-8f116c6ade85"><stop stop-color="#ff6cab" offset="0"></stop><stop stop-color="#7366ff" offset="1"></stop></linearGradient><rect width="395.52" height="75.27031858583612" fill="url(#70af632b-5c2f-488e-99d6-8f116c6ade85)" mask="url(#f2b317e1-022e-4aaf-a6ec-953f2975b420)" data-fill-palette-color="primary"></rect><mask id="4ccd03ca-e298-40f9-b8a6-ddfa2641458f"><g id="SvgjsG9212"><svg viewBox="0 0 395.52 75.27031858583612" height="75.27031858583612" width="395.52"><g><svg viewBox="0 0 508.91416840667944 96.85004952674105" height="75.27031858583612" width="395.52"><g transform="matrix(1,0,0,1,0,13.385209449788384)"><svg viewBox="0 0 395.52 70.07963062716428" height="70.07963062716428" width="395.52"><g id="SvgjsG9211"><svg viewBox="0 0 395.52 70.07963062716428" height="70.07963062716428" width="395.52" id="SvgjsSvg9210"><g><svg viewBox="0 0 395.52 70.07963062716428" height="70.07963062716428" width="395.52"><g transform="matrix(1,0,0,1,0,0)"><svg width="395.52" viewBox="3 -35.9 259.88 46.05" height="70.07963062716428" data-palette-color="url(#70af632b-5c2f-488e-99d6-8f116c6ade85)"></svg></g></svg></g></svg></g></svg></g><g transform="matrix(1,0,0,1,412.0641188799384,0)"><svg viewBox="0 0 96.85004952674105 96.85004952674105" height="96.85004952674105" width="96.85004952674105"><g data-palette-color="url(#8767d0a4-c63d-4c9c-ab11-ddf67e95823d)"><rect width="26.472346870642554" height="96.85004952674105" fill="white" stroke="transparent" x="0" fill-opacity="1"></rect><rect width="26.472346870642554" height="96.85004952674105" fill="white" stroke="transparent" x="32.28334984224702" fill-opacity="0.75"></rect><rect width="26.472346870642554" height="96.85004952674105" fill="white" stroke="transparent" x="64.56669968449404" fill-opacity="0.5"></rect></g></svg></g></svg></g><defs><mask></mask></defs><mask><g id="SvgjsG9209"><svg viewBox="0 0 395.52 75.27031858583612" height="75.27031858583612" width="395.52"><g><svg viewBox="0 0 508.91416840667944 96.85004952674105" height="75.27031858583612" width="395.52"><g transform="matrix(1,0,0,1,0,13.385209449788384)"><svg viewBox="0 0 395.52 70.07963062716428" height="70.07963062716428" width="395.52"><g id="SvgjsG9208"><svg viewBox="0 0 395.52 70.07963062716428" height="70.07963062716428" width="395.52" id="SvgjsSvg9207"><g><svg viewBox="0 0 395.52 70.07963062716428" height="70.07963062716428" width="395.52"><g transform="matrix(1,0,0,1,0,0)"><svg width="395.52" viewBox="3 -35.9 259.88 46.05" height="70.07963062716428" data-palette-color="url(#70af632b-5c2f-488e-99d6-8f116c6ade85)"><path d="M12.5 0.95L12.5 0.95Q23.15 4.65 28.48 5.98 33.8 7.3 37.63 7.3 41.45 7.3 46.05 5.55L46.05 5.55 46.3 5.95Q40.2 10.15 34 10.15L34 10.15Q27.65 10.15 19.55 6.2L19.55 6.2Q13.3 3.1 11.8 2.45L11.8 2.45Q6.45 0.05 3 0L3 0 3-0.5 3.65-0.5Q4.95-0.5 5.88-1.4 6.8-2.3 6.85-3.65L6.85-3.65 6.85-31.35Q6.8-32.65 5.88-33.58 4.95-34.5 3.65-34.5L3.65-34.5 3-34.5 3-35 13.95-35 13.95-34.5 13.3-34.5Q12-34.5 11.05-33.58 10.1-32.65 10.1-31.35L10.1-31.35 10.1-2.5Q10.1-1.6 10.2-1.13 10.3-0.65 10.85-0.05 11.4 0.55 12.5 0.95ZM23.05-0.5L23.7-0.5Q25-0.5 25.92-1.43 26.85-2.35 26.9-3.65L26.9-3.65 26.9-31.65Q26.9-32.85 25.95-33.68 25-34.5 23.7-34.5L23.7-34.5 23.1-34.5 23.05-35 37.7-35Q39.25-35 41.07-35.3 42.9-35.6 43.65-35.9L43.65-35.9 43.65-29.6 43.15-29.6 43.15-30.5Q43.15-31.7 42.32-32.55 41.5-33.4 40.35-33.45L40.35-33.45 30.15-33.45 30.15-18 38.6-18Q39.6-18.05 40.3-18.75 41-19.45 41-20.5L41-20.5 41-21.2 41.5-21.2 41.5-13.3 41-13.3 41-14.05Q41-15.05 40.32-15.75 39.65-16.45 38.65-16.5L38.65-16.5 30.15-16.5 30.15-1.55 37.3-1.55Q41-1.55 42.95-3.2 44.9-4.85 46.2-8.1L46.2-8.1 46.7-8.1 43.8 0 23.05 0 23.05-0.5ZM68.75 0.7Q60.85 0.65 55.87-4.35 50.9-9.35 50.9-17.53 50.9-25.7 55.87-30.7 60.85-35.7 69.05-35.7L69.05-35.7Q75.75-35.7 80.9-32.3L80.9-32.3 81.9-25.25 81.45-25.25Q80.34-29.55 77-31.88 73.65-34.2 69.05-34.2L69.05-34.2Q62.5-34.2 58.57-29.65 54.65-25.1 54.65-17.6 54.65-10.1 58.52-5.53 62.4-0.95 68.75-0.8L68.75-0.8Q74.34-0.8 78.09-3.85L78.09-3.85Q82.15-7.15 83-14.6L83-14.6 83.4-14.6 82.8-6.75Q78.25 0.7 68.75 0.7L68.75 0.7ZM121.64-0.5L121.64-0.5 122.04-0.5 122.04 0 110.79 0 110.79-0.5 111.24-0.5Q112.29-0.5 112.82-1.18 113.34-1.85 113.34-2.45 113.34-3.05 113.14-3.65L113.14-3.65 109.94-12.15 96.44-12.15 93.09-3.6Q92.89-3 92.89-2.43 92.89-1.85 93.42-1.18 93.94-0.5 94.99-0.5L94.99-0.5 95.44-0.5 95.44 0 85.39 0 85.39-0.5 85.84-0.5Q87.09-0.5 88.29-1.3 89.49-2.1 90.24-3.65L90.24-3.65 101.54-30.55Q103.39-34.6 103.39-35.7L103.39-35.7 103.84-35.7 117.24-3.65Q117.94-2.1 119.14-1.3 120.34-0.5 121.64-0.5ZM103.34-29.7L97.04-13.65 109.34-13.65 103.34-29.7ZM124.49-0.5L125.14-0.5Q126.44-0.5 127.37-1.43 128.29-2.35 128.34-3.65L128.34-3.65 128.34-31.35Q128.29-32.65 127.37-33.58 126.44-34.5 125.14-34.5L125.14-34.5 124.49-34.5 124.49-35 135.44-35 135.44-34.5 134.79-34.5Q132.99-34.5 132.04-32.95L132.04-32.95Q131.59-32.2 131.59-31.35L131.59-31.35 131.59-1.55 138.74-1.55Q142.44-1.55 144.39-3.2 146.34-4.85 147.64-8.1L147.64-8.1 148.14-8.1 145.24 0 124.49 0 124.49-0.5ZM151.84-0.5L152.49-0.5Q153.79-0.5 154.71-1.43 155.64-2.35 155.69-3.65L155.69-3.65 155.69-31.4Q155.64-32.7 154.71-33.6 153.79-34.5 152.49-34.5L152.49-34.5 151.84-34.5 151.84-35 162.79-35 162.79-34.5 162.14-34.5Q160.84-34.5 159.91-33.6 158.99-32.7 158.94-31.4L158.94-31.4 158.94-3.65Q158.94-2.35 159.89-1.43 160.84-0.5 162.14-0.5L162.14-0.5 162.79-0.5 162.79 0 151.84 0 151.84-0.5ZM185.59 0.7Q177.69 0.65 172.71-4.35 167.74-9.35 167.74-17.53 167.74-25.7 172.71-30.7 177.69-35.7 185.89-35.7L185.89-35.7Q192.59-35.7 197.74-32.3L197.74-32.3 198.74-25.25 198.29-25.25Q197.19-29.55 193.84-31.88 190.49-34.2 185.89-34.2L185.89-34.2Q179.34-34.2 175.41-29.65 171.49-25.1 171.49-17.6 171.49-10.1 175.36-5.53 179.24-0.95 185.59-0.8L185.59-0.8Q191.19-0.8 194.94-3.85L194.94-3.85Q198.99-7.15 199.84-14.6L199.84-14.6 200.24-14.6 199.64-6.75Q195.09 0.7 185.59 0.7L185.59 0.7ZM239.48-35L239.48-34.5 238.68-34.5Q237.63-34.5 236.86-33.83 236.08-33.15 236.03-32.15L236.03-32.15 236.03-12.35Q236.03-6.5 232.33-2.9 228.63 0.7 222.48 0.7 216.33 0.7 212.51-2.88 208.68-6.45 208.68-12.3L208.68-12.3 208.68-32Q208.68-33.5 207.38-34.2L207.38-34.2Q206.78-34.5 206.03-34.5L206.03-34.5 205.23-34.5 205.23-35 215.38-35 215.38-34.5 214.58-34.5Q213.48-34.5 212.73-33.83 211.98-33.15 211.93-32.1L211.93-32.1 211.93-13Q211.93-7.55 214.86-4.2 217.78-0.85 222.68-0.85 227.58-0.85 230.63-4.03 233.68-7.2 233.68-12.35L233.68-12.35 233.68-32.1Q233.63-33.15 232.88-33.83 232.13-34.5 231.03-34.5L231.03-34.5 230.23-34.5 230.23-35 239.48-35ZM245.03-2.05L245.03-2.05Q244.88-2.75 244.88-4.75 244.88-6.75 245.63-9L245.63-9 246.08-9Q246.03-8.45 246.03-7.9L246.03-7.9Q246.03-4.85 247.88-2.83 249.73-0.8 252.78-0.8L252.78-0.8Q255.93-0.8 257.96-2.7 259.98-4.6 259.98-7.48 259.98-10.35 258.03-12.15L258.03-12.15 248.43-21.05Q245.73-23.55 245.73-27.1 245.73-30.65 248.11-33.18 250.48-35.7 254.53-35.7L254.53-35.7Q256.43-35.7 258.83-35.2L258.83-35.2 260.78-35.2 260.78-29.05 260.33-29.05Q260.33-31.4 258.71-32.8 257.08-34.2 254.53-34.2 251.98-34.2 250.26-32.5 248.53-30.8 248.53-28.25 248.53-25.7 250.53-23.85L250.53-23.85 260.38-14.75Q262.88-12.45 262.88-8.45 262.88-4.45 260.33-1.88 257.78 0.7 253.53 0.7L253.53 0.7Q251.33 0.7 248.86 0.03 246.38-0.65 245.03-2.05Z" opacity="1" transform="matrix(1,0,0,1,0,0)" fill="black" class="wordmark-text-0" id="SvgjsPath9206"></path></svg></g></svg></g></svg></g></svg></g><g transform="matrix(1,0,0,1,412.0641188799384,0)"><svg viewBox="0 0 96.85004952674105 96.85004952674105" height="96.85004952674105" width="96.85004952674105"><g data-palette-color="url(#8767d0a4-c63d-4c9c-ab11-ddf67e95823d)"><rect width="26.472346870642554" height="96.85004952674105" fill="black" stroke="transparent" x="0" fill-opacity="1"></rect><rect width="26.472346870642554" height="96.85004952674105" fill="black" stroke="transparent" x="32.28334984224702" fill-opacity="0.75"></rect><rect width="26.472346870642554" height="96.85004952674105" fill="black" stroke="transparent" x="64.56669968449404" fill-opacity="0.5"></rect></g></svg></g></svg></g><defs><mask></mask></defs></svg><rect width="395.52" height="75.27031858583612" fill="black" stroke="none" visibility="hidden"></rect></g></mask></svg><rect width="395.52" height="75.27031858583612" fill="black" stroke="none" visibility="hidden"></rect></g></mask><linearGradient x1="0" x2="1" y1="0.548" y2="0.55" id="8767d0a4-c63d-4c9c-ab11-ddf67e95823d"><stop stop-color="#ff6cab" offset="0"></stop><stop stop-color="#7366ff" offset="1"></stop></linearGradient><rect width="395.52" height="75.27031858583612" fill="url(#8767d0a4-c63d-4c9c-ab11-ddf67e95823d)" mask="url(#4ccd03ca-e298-40f9-b8a6-ddfa2641458f)" data-fill-palette-color="accent"></rect></svg><rect width="395.52" height="75.27031858583612" fill="none" stroke="none" visibility="hidden"></rect></g></svg></g></svg>