<svg xmlns="http://www.w3.org/2000/svg" version="1.1" xmlns:xlink="http://www.w3.org/1999/xlink" xmlns:svgjs="http://svgjs.dev/svgjs" width="2000" height="404" viewBox="0 0 2000 404"><g transform="matrix(1,0,0,1,-1.2121212121212466,-0.6002285714285449)"><svg viewBox="0 0 396 80" data-background-color="#111111" preserveAspectRatio="xMidYMid meet" height="404" width="2000" xmlns="http://www.w3.org/2000/svg" xmlns:xlink="http://www.w3.org/1999/xlink"><g id="tight-bounds" transform="matrix(1,0,0,1,0.2400000000000091,0.11885714285713789)"><svg viewBox="0 0 395.52 79.76228571428571" height="79.76228571428571" width="395.52"><g><svg viewBox="0 0 395.52 79.76228571428571" height="79.76228571428571" width="395.52"><g><svg viewBox="0 0 395.52 79.76228571428571" height="79.76228571428571" width="395.52"><g id="textblocktransform"><svg viewBox="0 0 395.52 79.76228571428571" height="79.76228571428571" width="395.52" id="textblock"><g><svg viewBox="0 0 395.52 79.76228571428571" height="79.76228571428571" width="395.52"><g transform="matrix(1,0,0,1,0,0)"><svg width="395.52" viewBox="2.25 -35.18 176 35.5" height="79.76228571428571" data-palette-color="#ffffff"><path d="M5.64-13.06L5.64 0 2.25 0 2.25-34.86 10.33-34.86Q14.67-34.86 16.66-33.45 18.65-32.03 18.87-28.76L18.87-28.76Q19.12-26.03 19.09-23.75 19.07-21.48 18.87-19.17L18.87-19.17Q18.75-16.94 17.63-15.61 16.5-14.28 14.11-13.65L14.11-13.65 20.24 0 16.53 0 10.82-13.06 5.64-13.06ZM10.33-31.74L5.64-31.74 5.64-16.19 10.23-16.19Q12.99-16.19 14.2-16.87 15.41-17.55 15.5-18.99L15.5-18.99Q15.87-23.97 15.5-28.93L15.5-28.93Q15.41-30.37 14.21-31.05 13.01-31.74 10.33-31.74L10.33-31.74ZM38.25-3.13L38.25 0 23.58 0 23.58-34.86 38.25-34.86 38.25-31.74 26.98-31.74 26.98-19.14 37.5-19.14 37.5-16.02 26.98-16.02 26.98-3.13 38.25-3.13ZM44.82-13.21L44.82 0 41.43 0 41.43-34.86 49.65-34.86Q54.07-34.86 56.1-33.45 58.12-32.03 58.34-28.76L58.34-28.76Q58.59-26.03 58.59-23.83 58.59-21.63 58.34-19.31L58.34-19.31Q58.12-16.06 56.09-14.64 54.05-13.21 49.56-13.21L49.56-13.21 44.82-13.21ZM49.65-31.74L44.82-31.74 44.82-16.33 49.56-16.33Q52.39-16.33 53.62-17.03 54.85-17.72 54.98-19.17L54.98-19.17Q55.34-24.02 54.98-28.93L54.98-28.93Q54.85-30.37 53.63-31.05 52.41-31.74 49.65-31.74L49.65-31.74ZM76.6-3.13L76.6 0 61.93 0 61.93-34.86 76.6-34.86 76.6-31.74 65.32-31.74 65.32-19.14 75.85-19.14 75.85-16.02 65.32-16.02 65.32-3.13 76.6-3.13ZM93.96-3.13L93.96 0 79.78 0 79.78-34.86 83.17-34.86 83.17-3.13 93.96-3.13ZM110.8-3.13L110.8 0 96.62 0 96.62-34.86 100.01-34.86 100.01-3.13 110.8-3.13ZM117.88-34.86L117.88 0 114.49 0 114.49-34.86 117.88-34.86ZM131.79 0.32L131.79 0.32Q127.2 0.32 125.15-1.14 123.1-2.59 122.98-5.93L122.98-5.93Q122.86-7.79 122.9-9.3 122.93-10.82 123.05-12.7L123.05-12.7 126.35-12.7Q126.2-10.82 126.22-8.96 126.23-7.1 126.35-5.37L126.35-5.37Q126.47-3.96 127.69-3.28 128.91-2.61 131.72-2.61L131.72-2.61Q134.48-2.61 135.64-3.28 136.8-3.96 136.95-5.37L136.95-5.37Q137.07-7.1 137.06-8.39 137.04-9.67 136.95-11.57L136.95-11.57Q136.85-13.09 136.15-14.11 135.46-15.14 133.06-15.45L133.06-15.45 129.57-16.09Q126.81-16.55 125.43-17.44 124.05-18.33 123.55-19.74 123.05-21.14 122.96-23.17L122.96-23.17Q122.88-24.51 122.91-26.04 122.93-27.56 123-29L123-29Q123.05-32.32 125.04-33.75 127.03-35.18 131.72-35.18L131.72-35.18Q136.04-35.18 138.01-33.74 139.97-32.3 140.09-28.98L140.09-28.98Q140.17-27.83 140.14-26.14 140.12-24.44 140.05-22.63L140.05-22.63 136.73-22.63Q136.9-24.37 136.9-26.1 136.9-27.83 136.77-29.54L136.77-29.54Q136.68-30.93 135.49-31.59 134.31-32.25 131.65-32.25L131.65-32.25Q128.89-32.25 127.7-31.59 126.52-30.93 126.4-29.54L126.4-29.54Q126.28-27.98 126.29-26.37 126.3-24.76 126.4-23.17L126.4-23.17Q126.5-21.39 127.17-20.45 127.84-19.51 130.35-19.21L130.35-19.21 133.77-18.68Q136.53-18.26 137.92-17.33 139.31-16.41 139.81-14.98 140.31-13.55 140.39-11.57L140.39-11.57Q140.51-9.77 140.49-8.64 140.46-7.52 140.34-5.93L140.34-5.93Q140.17-2.59 138.18-1.14 136.19 0.32 131.79 0.32ZM152.32-31.74L152.32 0 148.93 0 148.93-31.74 142.27-31.74 142.27-34.86 159.01-34.86 159.01-31.74 152.32-31.74ZM165.16-9.67L163.65 0 160.18 0 165.7-34.86 172.68-34.86 178.25 0 174.78 0 173.27-9.67 165.16-9.67ZM168.26-31.74L166.58-20.39 165.48-12.79 172.95-12.79 171.9-20.41 170.19-31.74 168.26-31.74Z" opacity="1" transform="matrix(1,0,0,1,0,0)" fill="#ffffff" class="wordmark-text-0" data-fill-palette-color="primary" id="text-0"></path></svg></g></svg></g></svg></g></svg></g></svg></g><defs></defs></svg><rect width="395.52" height="79.76228571428571" fill="none" stroke="none" visibility="hidden"></rect></g></svg></g></svg>